<?xml version="1.0" encoding="utf-8"?><svg viewBox="0 0 512 512" xmlns="http://www.w3.org/2000/svg" xmlns:xlink="http://www.w3.org/1999/xlink"><style>:root>svg{display:none}:root>svg:target{display:block}</style><svg version="1.1" id="ico-dribble" x="0" y="0" viewBox="0 0 20 20" xml:space="preserve" xmlns="http://www.w3.org/2000/svg"><style>.ast0{fill-rule:evenodd;clip-rule:evenodd;fill:#fff}</style><path class="ast0" d="M19.48 7.88c-.13-.63-.32-1.24-.57-1.83a9.689 9.689 0 00-2.09-3.1c-.44-.44-.93-.84-1.44-1.19a9.51 9.51 0 00-1.66-.9 9.94 9.94 0 00-1.83-.57c-.64-.13-1.3-.2-1.96-.2-.66 0-1.32.07-1.96.2-.62.13-1.24.32-1.83.57-.58.24-1.13.55-1.65.9s-1 .75-1.44 1.19c-.44.44-.85.92-1.19 1.44-.36.52-.66 1.08-.9 1.66a9.707 9.707 0 000 7.58c.24.58.55 1.14.9 1.66.35.51.75 1 1.19 1.44.44.44.93.84 1.44 1.19.52.35 1.08.66 1.66.9.59.25 1.21.44 1.83.57.64.13 1.3.2 1.96.2a9.707 9.707 0 003.79-.77 9.689 9.689 0 003.1-2.09c.44-.44.84-.93 1.19-1.44.35-.52.65-1.08.9-1.66.25-.59.44-1.21.57-1.83.13-.64.2-1.3.2-1.96-.01-.66-.07-1.32-.21-1.96zm-1.22 1.87c-.12-.02-2.94-.63-5.8-.27-.06-.14-.12-.29-.18-.43-.17-.41-.36-.81-.55-1.21 3.29-1.34 4.62-3.27 4.64-3.29a8.337 8.337 0 011.89 5.2zm-2.83-6.16c-.02.03-1.21 1.84-4.35 3.01a41.785 41.785 0 00-3.11-4.85c.64-.15 1.29-.23 1.97-.23 2.1 0 4.03.78 5.49 2.07zM7.94 1.76s-.01 0-.03.01c.01-.01.02-.01.03-.01zm-1.55.55c.11.15 1.65 2.23 3.09 4.8-4 1.06-7.46 1.02-7.68 1.02a8.297 8.297 0 014.59-5.82zM1.61 9.84c0-.09 0-.18.01-.26.15 0 4.26.1 8.55-1.19.24.47.47.94.68 1.42-.11.03-.22.06-.33.1-4.49 1.45-6.77 5.49-6.77 5.49a8.259 8.259 0 01-2.14-5.56zm8.33 8.32a8.303 8.303 0 01-5.11-1.76s1.6-3.48 6.53-5.2c.02-.01.04-.01.05-.02 1.17 3.04 1.66 5.59 1.78 6.32-1 .43-2.1.66-3.25.66zm4.65-1.42c-.08-.5-.53-2.94-1.62-5.94 2.69-.43 5.01.31 5.19.36a8.35 8.35 0 01-3.57 5.58z"/></svg><svg version="1.1" id="ico-fb" x="0" y="0" viewBox="0 0 20 20" xml:space="preserve" xmlns="http://www.w3.org/2000/svg"><style>.bst0{fill:#fff}</style><path class="bst0" d="M14.48 6.89h-2.71V5.11c0-.67.44-.82.76-.82h1.92V1.35l-2.64-.01c-2.93 0-3.6 2.19-3.6 3.6V6.9H6.5v3.03h1.7v8.57h3.56V9.93h2.4l.32-3.04z"/></svg><svg version="1.1" id="ico-feather" x="0" y="0" viewBox="0 0 121.24 122.88" xml:space="preserve" xmlns="http://www.w3.org/2000/svg"><style>.cst0{fill-rule:evenodd;clip-rule:evenodd;fill:#27a284}</style><path class="cst0" d="M10.05 96.6C6.38 105.51 1.42 113.97 0 122.88l5.13-.44c8.1-23.56 15.4-39.4 31.23-59.21 11.88-14.84 24.77-26.65 41.3-36.03 8.8-5 20.07-10.47 30.21-11.85 2.77-.38 5.58-.49 8.46-.24-31.4 7.19-56.26 23.84-76.12 48.8C32.1 74.09 25.05 85.4 18.57 97.32l11.94 2.18-4.97-2.47 17.78-2.83c-6.6-2.33-13.12-1.55-15.21-4.06 18.3-.83 33.34-4.78 43.9-12.45-3.93-.55-8.46-1.04-10.82-2.17 17.69-5.98 27.92-16.73 40.9-26.27-16.87 3.54-32.48 2.96-37-.25 29.77 2.21 49-6.02 55.59-26.77.57-2.24.73-4.5.37-6.78C118.74.62 92.49-4.39 83.95 7.77c-1.71 2.43-4.12 4.66-6.11 7.48L85.97 0c-21.88 7.39-23.68 15.54-35 40.09.9-7.47 2.97-14.24 5.66-20.63-27.34 10.55-36.45 37.11-37.91 59.7-.79-7.88.67-17.78 3.49-28.9-7.98 8-13.41 17.39-11.47 30.79l-3.65-1.63 1.92 7.19-5.46-2.59 6.5 12.58z"/></svg><svg version="1.1" id="ico-google-plus" x="0" y="0" viewBox="0 0 20 20" xml:space="preserve" xmlns="http://www.w3.org/2000/svg"><style>.dst0{fill:#fff}</style><path class="dst0" d="M19.43 7.42h-2.95V4.46c0-.22-.18-.41-.41-.41h-.84c-.23 0-.41.18-.41.41v2.95h-2.95c-.22 0-.41.18-.41.41v.84c0 .23.19.41.41.41h2.95v2.96c0 .22.18.41.41.41h.84c.22 0 .41-.18.41-.41V9.08h2.95c.22 0 .41-.18.41-.41v-.84c0-.23-.19-.41-.41-.41z"/><path class="dst0" d="M9.5 10.01c-.62-.44-1.19-1.09-1.2-1.29 0-.36.03-.53.84-1.16 1.05-.82 1.62-1.9 1.62-3.04 0-1.03-.32-1.95-.85-2.6h.42c.09 0 .17-.03.24-.08L11.73 1c.14-.1.2-.29.15-.46a.408.408 0 00-.39-.28H6.3c-.57 0-1.15.1-1.72.3-1.89.66-3.21 2.27-3.21 3.93 0 2.35 1.82 4.13 4.25 4.18-.05.19-.08.37-.08.55 0 .36.09.71.28 1.04h-.07c-2.32 0-4.41 1.14-5.2 2.83-.21.44-.31.88-.31 1.32 0 .43.11.84.32 1.23.5.89 1.57 1.59 3.02 1.95.75.19 1.55.29 2.39.29.75 0 1.46-.1 2.12-.29 2.06-.6 3.39-2.12 3.39-3.87.01-1.68-.53-2.69-1.98-3.71zm-6.56 3.84c0-1.22 1.55-2.29 3.32-2.29h.04c.39.01.76.06 1.12.17.12.08.24.16.35.24.82.56 1.36.93 1.51 1.52.04.15.05.3.05.44 0 1.52-1.14 2.29-3.37 2.29-1.7 0-3.02-1.04-3.02-2.37zM4.55 2.3c.28-.31.64-.48 1.05-.48h.05C6.8 1.85 7.9 3.13 8.1 4.67c.1.87-.09 1.68-.52 2.18-.28.31-.64.48-1.06.48H6.5c-1.12-.03-2.25-1.36-2.45-2.9-.11-.86.07-1.64.5-2.13z"/></svg><svg viewBox="0 0 24 24" fill="#c3c6c7" id="ico-heart" xmlns="http://www.w3.org/2000/svg"><path d="M0 0h24v24H0z" fill="none"/><path d="M16.5 3c-1.74 0-3.41.81-4.5 2.09C10.91 3.81 9.24 3 7.5 3 4.42 3 2 5.42 2 8.5c0 3.78 3.4 6.86 8.55 11.54L12 21.35l1.45-1.32C18.6 15.36 22 12.28 22 8.5 22 5.42 19.58 3 16.5 3zm-4.4 15.55l-.1.1-.1-.1C7.14 14.24 4 11.39 4 8.5 4 6.5 5.5 5 7.5 5c1.54 0 3.04.99 3.57 2.36h1.87C13.46 5.99 14.96 5 16.5 5c2 0 3.5 1.5 3.5 3.5 0 2.89-3.14 5.74-7.9 10.05z"/></svg><svg id="ico-megaphone" viewBox="0 0 512 512" xmlns="http://www.w3.org/2000/svg"><style>.fst0{fill-rule:evenodd;clip-rule:evenodd;fill:#27a284}</style><path class="fst0" d="M437 421c8.291 0 15-6.709 15-15V46c0-8.291-6.709-15-15-15s-15 6.709-15 15v19.42l-212 74.883v171.394l212 74.883V406c0 8.291 6.709 15 15 15zM90 331v135c0 8.291 6.709 15 15 15h30c8.291 0 15-6.709 15-15v-75h15c24.814 0 45-20.186 45-45v-15h-30v15c0 8.276-6.724 15-15 15h-15v-30zM503.709 182.582L482 171.728v108.545l21.709-10.854A15.008 15.008 0 00512 256v-60a15.006 15.006 0 00-8.291-13.418zM75 301h105V151H75c-41.353 0-75 33.647-75 75s33.647 75 75 75z"/></svg><svg version="1.1" id="ico-pencil" x="0" y="0" viewBox="0 0 121.48 122.88" xml:space="preserve" xmlns="http://www.w3.org/2000/svg"><style>.gst0{fill-rule:evenodd;clip-rule:evenodd;fill:#27a284}</style><path class="gst0" d="M96.84 2.22l22.42 22.42c2.96 2.96 2.96 7.8 0 10.76l-12.4 12.4-33.18-33.18 12.4-12.4c2.96-2.96 7.8-2.96 10.76 0zM70.18 52.19v.01c.92.92 1.38 2.14 1.38 3.34 0 1.2-.46 2.41-1.38 3.34v.01l-.01.01-30.08 30.09h-.01c-.26.26-.55.48-.84.67h-.01c-.3.19-.61.34-.93.45-1.66.58-3.59.2-4.91-1.12h-.01v-.01c-.26-.26-.48-.55-.67-.84v-.01c-.19-.3-.34-.61-.45-.93-.58-1.66-.2-3.59 1.11-4.91v-.01l30.09-30.09h.01c.92-.92 2.14-1.38 3.34-1.38 1.2 0 2.41.46 3.34 1.38h.03zm-24.7 56.92c-8.98 2.78-17.95 5.55-26.93 8.33-21.1 6.53-21.01 10.88-15.25-9.44l9.07-32-.03-.03L67.4 20.9l33.18 33.18-55.07 55.07-.03-.04zM18.03 81.66l21.79 21.79c-5.9 1.82-11.8 3.64-17.69 5.45-13.86 4.27-13.8 7.13-10.03-6.22l5.93-21.02z"/></svg><svg version="1.1" id="ico-twitter" x="0" y="0" viewBox="0 0 20 20" xml:space="preserve" xmlns="http://www.w3.org/2000/svg"><style>.hst0{fill:#fff}</style><path class="hst0" d="M19.95 2.83c-.73.32-1.52.54-2.34.64.84-.5 1.49-1.3 1.79-2.26-.79.47-1.66.81-2.59.99a4.084 4.084 0 00-7.06 2.79c0 .32.04.63.11.93-3.39-.17-6.4-1.79-8.42-4.27-.35.6-.55 1.31-.55 2.05 0 1.42.72 2.66 1.82 3.4-.68-.01-1.31-.19-1.86-.5v.05c0 1.98 1.41 3.63 3.28 4-.34.09-.7.14-1.08.14-.26 0-.52-.02-.77-.07.52 1.62 2.03 2.8 3.81 2.84a8.174 8.174 0 01-6.05 1.69c1.81 1.16 3.95 1.83 6.26 1.83 7.51 0 11.62-6.22 11.62-11.62 0-.18 0-.35-.01-.53.8-.56 1.49-1.28 2.04-2.1z"/></svg></svg>